<svg width="671" height="261" viewBox="0 0 671 261" fill="none" xmlns="http://www.w3.org/2000/svg">
<path d="M9.23975 85.0098C9.23975 82.736 9.40511 80.3382 9.73584 77.8164C10.0666 75.2533 10.5213 72.6901 11.1001 70.127C11.6789 67.5225 12.3197 64.9593 13.0225 62.4375C13.7666 59.9157 14.5521 57.5386 15.3789 55.3062C16.3711 52.6603 17.7767 49.9318 19.5957 47.1206C21.4561 44.3094 23.6885 41.7669 26.293 39.4932C28.9388 37.1781 31.936 35.2764 35.2847 33.7881C38.6746 32.2998 42.3953 31.5557 46.4468 31.5557C50.0021 31.5557 53.5161 32.0724 56.9888 33.106C60.5028 34.1395 63.6447 35.6691 66.4146 37.6948C69.2257 39.7205 71.4995 42.2217 73.2358 45.1982C74.9722 48.1335 75.8403 51.5441 75.8403 55.4302C75.8403 56.133 75.7576 56.9598 75.5923 57.9106C75.4269 58.8201 75.1375 59.709 74.7241 60.5771C74.3521 61.404 73.8146 62.1068 73.1118 62.6855C72.409 63.2643 71.4995 63.5537 70.3833 63.5537C69.1017 63.5537 68.1095 63.2023 67.4067 62.4995C66.7453 61.7554 66.2492 60.8459 65.9185 59.771C65.6291 58.6961 65.443 57.5179 65.3604 56.2363C65.319 54.9134 65.2983 53.6732 65.2983 52.5156C65.2983 51.11 64.6989 49.7871 63.5 48.5469C62.3011 47.2653 60.7922 46.1491 58.9731 45.1982C57.1541 44.2474 55.1698 43.5033 53.02 42.9658C50.8703 42.387 48.8652 42.0977 47.0049 42.0977C43.5322 42.0977 40.4523 42.9038 37.7651 44.5161C35.078 46.1284 32.7422 48.2368 30.7578 50.8413C28.7734 53.4458 27.0991 56.3604 25.7349 59.585C24.4119 62.8096 23.3371 66.0342 22.5103 69.2588C21.6834 72.4421 21.084 75.4806 20.7119 78.3745C20.3812 81.2684 20.2158 83.6455 20.2158 85.5059C20.2158 89.1852 21.0013 92.4718 22.5723 95.3657C24.1432 98.2596 26.2103 100.719 28.7734 102.745C31.3366 104.729 34.2305 106.259 37.4551 107.334C40.6797 108.368 43.9663 108.884 47.3149 108.884C48.9686 108.884 50.9116 108.822 53.144 108.698C55.3765 108.574 57.6502 108.368 59.9653 108.078C62.2804 107.747 64.5335 107.313 66.7246 106.776C68.957 106.238 70.8587 105.577 72.4297 104.792C73.0911 104.461 73.6493 104.068 74.104 103.613C74.5588 103.117 75.0135 102.662 75.4683 102.249C75.9644 101.794 76.5018 101.422 77.0806 101.133C77.7007 100.802 78.4655 100.637 79.375 100.637C81.1527 100.637 82.5583 101.236 83.5918 102.435C84.6667 103.634 85.2041 105.102 85.2041 106.838C85.2041 107.995 85.0594 108.946 84.77 109.69C84.4806 110.393 83.9845 111.034 83.2817 111.613C81.7108 112.936 79.5404 114.073 76.7705 115.023C74.042 115.974 71.0654 116.76 67.8408 117.38C64.6162 118 61.3296 118.455 57.981 118.744C54.6737 119.034 51.6351 119.178 48.8652 119.178C45.6406 119.178 42.416 118.972 39.1914 118.558C36.0081 118.145 32.9489 117.463 30.0137 116.512C27.0785 115.52 24.3293 114.197 21.7661 112.543C19.2443 110.848 17.0532 108.74 15.1929 106.218C13.3325 103.655 11.8649 100.637 10.79 97.1641C9.75651 93.6914 9.23975 89.64 9.23975 85.0098ZM97.1724 91.583C97.1724 88.3584 97.6271 85.0098 98.5366 81.5371C99.4875 78.0231 100.831 74.7572 102.567 71.7393C104.221 68.7214 106.247 65.8895 108.645 63.2437C111.084 60.5978 113.792 58.3034 116.768 56.3604C119.745 54.376 122.949 52.8257 126.38 51.7095C129.853 50.5519 133.47 49.9731 137.232 49.9731C140.084 49.9731 142.834 50.3659 145.479 51.1514C148.125 51.8955 150.606 52.929 152.921 54.252C155.236 55.5749 157.344 57.1458 159.246 58.9648C161.189 60.7839 162.843 62.7476 164.207 64.856C165.571 66.923 166.625 69.0934 167.37 71.3672C168.114 73.641 168.486 75.9147 168.486 78.1885C168.486 80.2142 168.362 82.0125 168.114 83.5835C167.907 85.1131 167.638 86.6427 167.308 88.1724C167.06 89.7433 166.812 91.3763 166.563 93.0713C166.315 94.7249 166.191 96.668 166.191 98.9004C166.191 100.843 166.336 102.456 166.625 103.737C166.915 104.978 167.328 105.99 167.866 106.776C168.403 107.561 169.044 108.119 169.788 108.45C170.574 108.74 171.442 108.884 172.393 108.884C172.641 108.884 172.951 108.822 173.323 108.698C173.695 108.533 174.046 108.368 174.377 108.202C174.708 107.995 174.997 107.809 175.245 107.644C175.493 107.437 175.659 107.272 175.741 107.148C176.196 106.693 176.63 106.3 177.043 105.97C177.498 105.598 178.098 105.412 178.842 105.412C180.33 105.412 181.446 105.763 182.19 106.466C182.976 107.169 183.369 108.326 183.369 109.938C183.369 110.931 183.059 111.964 182.438 113.039C181.86 114.114 181.033 115.106 179.958 116.016C178.883 116.884 177.602 117.607 176.113 118.186C174.625 118.765 172.971 119.054 171.152 119.054C167.514 119.054 164.393 118.041 161.789 116.016C159.225 113.949 157.386 111.137 156.27 107.582C154.74 109.194 153.066 110.745 151.247 112.233C149.428 113.68 147.423 114.961 145.231 116.078C143.04 117.153 140.601 118 137.914 118.62C135.268 119.282 132.333 119.612 129.108 119.612C126.669 119.612 124.168 119.282 121.605 118.62C119.083 117.959 116.623 117.028 114.226 115.83C111.869 114.631 109.657 113.184 107.59 111.489C105.523 109.752 103.704 107.851 102.133 105.784C100.604 103.717 99.3841 101.484 98.4746 99.0864C97.6064 96.6886 97.1724 94.1875 97.1724 91.583ZM108.769 91.459C108.769 94.0221 109.451 96.3786 110.815 98.5283C112.221 100.678 114.019 102.518 116.21 104.047C118.401 105.577 120.84 106.776 123.527 107.644C126.256 108.471 128.922 108.884 131.527 108.884C135 108.884 138.183 108.223 141.077 106.9C144.012 105.577 146.513 103.861 148.58 101.753C150.688 99.6445 152.321 97.2881 153.479 94.6836C154.637 92.0378 155.215 89.4333 155.215 86.8701C155.215 85.4232 155.525 84.1623 156.146 83.0874C156.807 81.9712 157.427 80.917 158.006 79.9248C158.171 79.7181 158.254 79.408 158.254 78.9946C158.295 78.5399 158.295 78.0851 158.254 77.6304C158.254 77.1343 158.233 76.6795 158.192 76.2661C158.151 75.8527 158.13 75.5633 158.13 75.3979C158.13 74.4884 157.82 73.4963 157.2 72.4214C156.58 71.3465 155.732 70.2716 154.657 69.1968C153.624 68.1219 152.425 67.0884 151.061 66.0962C149.738 65.0627 148.373 64.1532 146.968 63.3677C145.562 62.5822 144.157 61.9621 142.751 61.5073C141.345 61.0112 140.084 60.7632 138.968 60.7632C135.826 60.7632 132.891 61.1973 130.163 62.0654C127.475 62.9336 125.016 64.1118 122.783 65.6001C120.551 67.0884 118.546 68.8454 116.768 70.8711C115.032 72.8555 113.564 74.9845 112.365 77.2583C111.208 79.5321 110.319 81.8885 109.699 84.3276C109.079 86.7668 108.769 89.1439 108.769 91.459ZM195.461 110C195.461 108.926 195.523 107.809 195.647 106.652C195.771 105.494 195.833 104.378 195.833 103.303C195.833 100.781 195.709 98.1562 195.461 95.4277C195.254 93.2367 195.13 90.9422 195.089 88.5444C195.089 86.1466 195.172 84.0382 195.337 82.2192L197.383 57.7246C197.549 55.7402 198.045 54.1693 198.872 53.0117C199.74 51.8128 201.269 51.2134 203.46 51.2134C204.37 51.2134 205.155 51.3787 205.817 51.7095C206.52 51.9989 207.098 52.3916 207.553 52.8877C208.049 53.3838 208.442 53.9419 208.731 54.562C209.021 55.1408 209.228 55.7196 209.352 56.2983C211.047 55.0168 212.907 53.9212 214.933 53.0117C216.958 52.1022 219.046 51.3581 221.196 50.7793C223.346 50.2005 225.516 49.7871 227.707 49.5391C229.898 49.2497 232.027 49.105 234.094 49.105C235.831 49.105 237.815 49.229 240.047 49.4771C242.28 49.6838 244.388 50.1592 246.373 50.9033C248.357 51.6475 250.031 52.7223 251.396 54.1279C252.76 55.5335 253.442 57.4352 253.442 59.833C253.442 61.528 252.904 62.9129 251.83 63.9878C250.796 65.0213 249.411 65.5381 247.675 65.5381C246.352 65.5381 245.318 65.2487 244.574 64.6699C243.83 64.0498 243.169 63.3677 242.59 62.6235C242.342 62.3341 242.052 62.0241 241.722 61.6934C241.391 61.3626 240.916 61.0526 240.295 60.7632C239.717 60.4738 238.952 60.2464 238.001 60.0811C237.05 59.9157 235.831 59.833 234.342 59.833C229.671 59.833 225.619 60.3291 222.188 61.3213C218.757 62.2721 215.925 63.7811 213.692 65.8481C211.46 67.9152 209.806 70.5817 208.731 73.8477C207.657 77.0723 207.119 80.9583 207.119 85.5059C207.119 87.2008 207.14 88.8132 207.181 90.3428C207.222 91.8311 207.285 93.3193 207.367 94.8076C207.491 96.2959 207.615 97.8049 207.739 99.3345C207.863 100.864 207.987 102.497 208.111 104.233C208.194 105.556 208.318 106.921 208.483 108.326C208.649 109.732 208.731 111.096 208.731 112.419C208.731 112.791 208.628 113.308 208.421 113.969C208.215 114.631 207.863 115.292 207.367 115.954C206.912 116.574 206.292 117.132 205.507 117.628C204.763 118.083 203.833 118.31 202.716 118.31C201.269 118.31 200.07 118.145 199.12 117.814C198.21 117.483 197.466 116.987 196.887 116.326C196.35 115.623 195.978 114.755 195.771 113.721C195.564 112.646 195.461 111.406 195.461 110ZM268.883 107.024C268.676 106.073 268.573 105.04 268.573 103.923C268.573 102.807 268.573 101.712 268.573 100.637C268.573 97.8669 268.511 95.1383 268.387 92.4512C268.263 89.7227 268.118 87.0148 267.953 84.3276C267.829 81.6405 267.705 78.9326 267.581 76.2041C267.498 73.4756 267.498 70.7057 267.581 67.8945L268.077 35.5244C268.077 32.7959 268.49 30.5841 269.317 28.8892C270.144 27.1942 271.632 26.3467 273.782 26.3467C274.567 26.3467 275.27 26.512 275.89 26.8428C276.552 27.1735 277.11 27.6076 277.564 28.145C278.019 28.6411 278.371 29.1992 278.619 29.8193C278.867 30.4395 278.991 31.0389 278.991 31.6177V77.1343C278.991 81.6405 279.073 86.1673 279.239 90.7148C279.445 95.221 279.962 99.7892 280.789 104.419C280.913 105.164 281.099 105.784 281.347 106.28C281.637 106.735 281.947 107.107 282.277 107.396C282.649 107.644 283.042 107.809 283.456 107.892C283.869 107.975 284.262 108.016 284.634 108.016C285.254 108.016 285.771 107.892 286.184 107.644C286.597 107.355 286.908 107.086 287.114 106.838C287.362 106.549 287.61 106.28 287.858 106.032C288.148 105.742 288.458 105.494 288.789 105.288C289.119 105.04 289.512 104.854 289.967 104.729C290.463 104.605 291.042 104.543 291.703 104.543C292.447 104.543 293.088 104.709 293.625 105.04C294.163 105.329 294.618 105.722 294.99 106.218C295.362 106.714 295.631 107.272 295.796 107.892C296.003 108.512 296.106 109.132 296.106 109.752C296.106 111.034 295.713 112.212 294.928 113.287C294.184 114.321 293.233 115.209 292.075 115.954C290.918 116.698 289.657 117.277 288.292 117.69C286.928 118.103 285.647 118.31 284.448 118.31C280.148 118.393 276.676 117.483 274.03 115.582C271.425 113.639 269.71 110.786 268.883 107.024ZM307.144 85.0098C307.144 78.6019 308.178 73.1655 310.245 68.7007C312.312 64.2358 315.02 60.6185 318.368 57.8486C321.758 55.0374 325.582 53.0117 329.84 51.7715C334.14 50.4899 338.522 49.8491 342.987 49.8491C348.154 49.8491 352.785 50.6966 356.877 52.3916C361.012 54.0866 364.505 56.5257 367.357 59.709C370.21 62.8923 372.401 66.7576 373.931 71.3052C375.46 75.8114 376.225 80.8757 376.225 86.498C376.225 89.764 375.791 92.8439 374.923 95.7378C374.055 98.6317 372.856 101.319 371.326 103.799C369.797 106.238 367.957 108.43 365.807 110.373C363.699 112.316 361.384 113.99 358.862 115.396C356.34 116.76 353.674 117.793 350.862 118.496C348.051 119.24 345.199 119.612 342.305 119.612C339.163 119.612 336.104 119.116 333.127 118.124C330.192 117.173 327.422 115.85 324.817 114.155C322.213 112.46 319.815 110.497 317.624 108.264C315.474 105.99 313.614 103.572 312.043 101.009C310.513 98.4456 309.314 95.7998 308.446 93.0713C307.578 90.3428 307.144 87.6556 307.144 85.0098ZM317.872 83.4595C317.872 86.5187 318.534 89.5986 319.856 92.6992C321.179 95.7585 322.916 98.5283 325.065 101.009C327.257 103.489 329.737 105.515 332.507 107.086C335.318 108.616 338.171 109.38 341.064 109.38C344.206 109.38 347.245 108.843 350.18 107.768C353.157 106.693 355.761 105.122 357.994 103.055C360.267 100.988 362.086 98.4663 363.451 95.4897C364.815 92.5132 365.497 89.1232 365.497 85.3198C365.497 81.5991 364.98 78.2091 363.947 75.1499C362.955 72.0493 361.57 69.3828 359.792 67.1504C358.014 64.918 355.885 63.2023 353.405 62.0034C350.924 60.7632 348.237 60.1431 345.343 60.1431C342.119 60.1431 338.873 60.6598 335.607 61.6934C332.341 62.6855 329.386 64.1738 326.74 66.1582C324.135 68.1012 322.006 70.5197 320.353 73.4136C318.699 76.3075 317.872 79.6561 317.872 83.4595ZM400.1 108.264C400.1 107.727 400.327 107.003 400.782 106.094C401.236 105.143 401.795 104.295 402.456 103.551C403.159 102.807 403.924 102.332 404.75 102.125C405.577 101.877 406.363 102.166 407.107 102.993C408.471 104.523 409.691 105.722 410.766 106.59C411.882 107.458 413.039 108.099 414.238 108.512C415.479 108.926 416.822 109.174 418.269 109.256C419.757 109.339 421.535 109.38 423.602 109.38C426.083 109.38 428.604 109.112 431.167 108.574C433.772 107.995 436.149 107.334 438.299 106.59C440.449 105.804 442.206 104.998 443.57 104.171C444.934 103.345 445.616 102.683 445.616 102.187C445.616 101.526 445.182 100.843 444.314 100.141C443.487 99.4378 442.35 98.7764 440.903 98.1562C439.456 97.5361 437.761 96.9574 435.818 96.4199C433.875 95.8411 431.808 95.3657 429.617 94.9937C427.054 94.6629 424.429 94.2909 421.742 93.8774C419.096 93.464 416.512 92.9266 413.99 92.2651C411.468 91.6037 409.091 90.8182 406.859 89.9087C404.626 88.9578 402.663 87.7796 400.968 86.374C399.273 84.9684 397.929 83.2941 396.937 81.3511C395.986 79.408 395.511 77.1343 395.511 74.5298C395.511 71.7186 395.986 69.1141 396.937 66.7163C397.929 64.3185 399.252 62.1274 400.906 60.1431C402.601 58.1587 404.564 56.4017 406.797 54.8721C409.071 53.3424 411.51 52.0609 414.114 51.0273C416.719 49.9938 419.427 49.2083 422.238 48.6709C425.049 48.1335 427.84 47.8647 430.609 47.8647C433.503 47.8647 436.128 48.2368 438.485 48.981C440.883 49.6838 442.908 50.6346 444.562 51.8335C446.216 52.991 447.497 54.3346 448.407 55.8643C449.316 57.3939 449.771 58.9855 449.771 60.6392C449.771 61.6727 449.75 62.8509 449.709 64.1738C449.668 65.4967 449.482 66.7576 449.151 67.9565C448.861 69.1141 448.365 70.1063 447.663 70.9331C446.96 71.7186 445.947 72.1113 444.624 72.1113C443.797 72.1113 443.156 71.946 442.702 71.6152C442.288 71.2432 441.978 70.8091 441.771 70.313C441.565 69.8169 441.441 69.2795 441.399 68.7007C441.358 68.0806 441.337 67.5225 441.337 67.0264C441.337 65.4141 441.048 64.1118 440.469 63.1196C439.932 62.1274 439.126 61.342 438.051 60.7632C436.976 60.1844 435.653 59.7917 434.082 59.585C432.552 59.3783 430.795 59.2749 428.811 59.2749C427.447 59.2749 425.958 59.4609 424.346 59.833C422.734 60.2051 421.101 60.7218 419.447 61.3833C417.835 62.0034 416.243 62.7682 414.672 63.6777C413.143 64.5872 411.778 65.6001 410.58 66.7163C409.422 67.7912 408.471 68.9281 407.727 70.127C407.024 71.3258 406.673 72.5661 406.673 73.8477C406.673 75.46 407.314 76.8035 408.595 77.8784C409.877 78.9119 411.572 79.7801 413.68 80.4829C415.789 81.1857 418.166 81.7852 420.812 82.2812C423.499 82.736 426.227 83.1701 428.997 83.5835C432.428 84.1209 435.798 84.8031 439.105 85.6299C442.454 86.4154 445.451 87.4902 448.097 88.8545C450.743 90.2188 452.872 91.9757 454.484 94.1255C456.096 96.2339 456.902 98.859 456.902 102.001C456.902 104.233 456.262 106.238 454.98 108.016C453.698 109.752 452.024 111.303 449.957 112.667C447.931 113.99 445.637 115.127 443.074 116.078C440.511 117.028 437.927 117.793 435.322 118.372C432.759 118.992 430.299 119.447 427.943 119.736C425.586 120.026 423.602 120.17 421.99 120.17C420.75 120.17 419.344 120.108 417.773 119.984C416.202 119.902 414.59 119.716 412.936 119.426C411.324 119.137 409.753 118.723 408.223 118.186C406.694 117.649 405.309 116.946 404.068 116.078C402.869 115.168 401.898 114.093 401.154 112.853C400.451 111.571 400.1 110.042 400.1 108.264Z" fill="white"/>
<path d="M161.96 212.024C161.96 210.412 161.94 208.593 161.898 206.567C161.857 204.541 161.836 202.66 161.836 200.924C161.836 198.278 161.857 195.487 161.898 192.552C161.94 189.617 161.981 186.64 162.022 183.623C162.064 180.563 162.105 177.504 162.146 174.445C162.188 171.386 162.208 168.368 162.208 165.391C162.208 162.332 162.084 159.273 161.836 156.213C161.63 153.154 161.526 149.909 161.526 146.478C161.526 145.899 161.609 145.175 161.774 144.307C161.981 143.439 162.291 142.612 162.705 141.827C163.118 141 163.635 140.318 164.255 139.78C164.875 139.201 165.619 138.912 166.487 138.912C168.224 138.912 169.671 139.326 170.828 140.152C172.027 140.938 173.019 141.992 173.805 143.315C174.632 144.638 175.314 146.147 175.851 147.842C176.389 149.537 176.885 151.273 177.339 153.051C177.835 154.828 178.332 156.585 178.828 158.322C179.365 160.017 180.027 161.546 180.812 162.911C182.176 165.35 183.685 167.996 185.339 170.848C186.993 173.701 188.667 176.553 190.362 179.406C192.098 182.258 193.772 185.028 195.385 187.715C197.038 190.361 198.547 192.718 199.912 194.785C201.483 196.893 202.992 198.919 204.438 200.862C205.927 202.805 207.27 204.521 208.469 206.009C209.668 207.456 210.681 208.613 211.508 209.481C212.376 210.35 212.996 210.784 213.368 210.784C213.492 210.784 213.616 210.308 213.74 209.357C213.906 208.407 214.05 207.187 214.174 205.699C214.298 204.169 214.422 202.474 214.546 200.614C214.712 198.712 214.836 196.852 214.918 195.033C215.042 193.172 215.146 191.436 215.229 189.824C215.353 188.211 215.435 186.909 215.477 185.917C215.518 180.543 215.559 175.809 215.601 171.716C215.642 167.624 215.663 163.986 215.663 160.802C215.704 157.578 215.725 154.704 215.725 152.183C215.725 149.661 215.725 147.284 215.725 145.051C215.725 142.984 215.807 141.165 215.973 139.594C216.138 138.023 216.448 136.7 216.903 135.625C217.399 134.551 218.04 133.744 218.825 133.207C219.652 132.628 220.686 132.339 221.926 132.339C222.959 132.339 223.848 132.422 224.592 132.587C225.336 132.711 225.957 133.042 226.453 133.579C226.949 134.075 227.3 134.84 227.507 135.874C227.755 136.866 227.879 138.23 227.879 139.966C227.879 144.224 227.776 148.441 227.569 152.617C227.362 156.751 227.197 160.968 227.073 165.267C226.866 172.584 226.556 180.047 226.143 187.653C225.729 195.219 225.316 202.764 224.902 210.288C224.778 212.024 224.675 213.884 224.592 215.869C224.51 217.853 224.179 219.693 223.6 221.388C223.063 223.041 222.132 224.406 220.81 225.48C219.528 226.597 217.564 227.155 214.918 227.155C214.34 227.155 213.782 227.051 213.244 226.845C212.707 226.638 212.19 226.39 211.694 226.101C211.239 225.853 210.826 225.563 210.454 225.232C210.082 224.902 209.813 224.612 209.647 224.364C206.009 220.602 202.495 216.551 199.105 212.21C195.757 207.828 192.532 203.342 189.432 198.753C186.331 194.165 183.375 189.534 180.564 184.863C177.794 180.15 175.21 175.561 172.812 171.096C172.812 181.39 172.957 189.142 173.247 194.351C173.536 199.56 173.722 202.453 173.805 203.032C174.053 204.314 174.301 205.823 174.549 207.559C174.838 209.295 174.983 211.156 174.983 213.14C174.983 214.298 174.88 215.393 174.673 216.427C174.507 217.46 174.197 218.37 173.743 219.155C173.288 219.941 172.688 220.561 171.944 221.016C171.2 221.47 170.27 221.698 169.154 221.698C167.542 221.698 166.26 221.45 165.309 220.954C164.358 220.416 163.635 219.713 163.139 218.845C162.643 217.936 162.312 216.902 162.146 215.745C162.022 214.546 161.96 213.306 161.96 212.024ZM246.172 190.01C246.172 183.602 247.206 178.166 249.273 173.701C251.34 169.236 254.048 165.618 257.396 162.849C260.786 160.037 264.611 158.012 268.869 156.771C273.168 155.49 277.55 154.849 282.015 154.849C287.183 154.849 291.813 155.697 295.906 157.392C300.04 159.087 303.533 161.526 306.386 164.709C309.238 167.892 311.429 171.758 312.959 176.305C314.489 180.811 315.253 185.876 315.253 191.498C315.253 194.764 314.819 197.844 313.951 200.738C313.083 203.632 311.884 206.319 310.354 208.799C308.825 211.238 306.985 213.43 304.835 215.373C302.727 217.316 300.412 218.99 297.89 220.396C295.368 221.76 292.702 222.793 289.891 223.496C287.079 224.24 284.227 224.612 281.333 224.612C278.191 224.612 275.132 224.116 272.155 223.124C269.22 222.173 266.45 220.85 263.846 219.155C261.241 217.46 258.843 215.497 256.652 213.264C254.503 210.99 252.642 208.572 251.071 206.009C249.542 203.446 248.343 200.8 247.475 198.071C246.606 195.343 246.172 192.656 246.172 190.01ZM256.9 188.459C256.9 191.519 257.562 194.599 258.885 197.699C260.208 200.758 261.944 203.528 264.094 206.009C266.285 208.489 268.765 210.515 271.535 212.086C274.346 213.616 277.199 214.38 280.093 214.38C283.235 214.38 286.273 213.843 289.208 212.768C292.185 211.693 294.79 210.122 297.022 208.055C299.296 205.988 301.115 203.466 302.479 200.49C303.843 197.513 304.525 194.123 304.525 190.32C304.525 186.599 304.009 183.209 302.975 180.15C301.983 177.049 300.598 174.383 298.82 172.15C297.043 169.918 294.914 168.202 292.433 167.003C289.953 165.763 287.265 165.143 284.372 165.143C281.147 165.143 277.902 165.66 274.636 166.693C271.37 167.686 268.414 169.174 265.768 171.158C263.164 173.101 261.035 175.52 259.381 178.414C257.727 181.307 256.9 184.656 256.9 188.459ZM332.865 190.01C332.865 187.736 333.03 185.338 333.361 182.816C333.692 180.253 334.146 177.69 334.725 175.127C335.304 172.522 335.945 169.959 336.647 167.438C337.392 164.916 338.177 162.539 339.004 160.306C339.996 157.66 341.402 154.932 343.221 152.121C345.081 149.309 347.313 146.767 349.918 144.493C352.564 142.178 355.561 140.276 358.91 138.788C362.3 137.3 366.02 136.556 370.072 136.556C373.627 136.556 377.141 137.072 380.614 138.106C384.128 139.139 387.27 140.669 390.04 142.695C392.851 144.721 395.125 147.222 396.861 150.198C398.597 153.133 399.465 156.544 399.465 160.43C399.465 161.133 399.383 161.96 399.217 162.911C399.052 163.82 398.763 164.709 398.349 165.577C397.977 166.404 397.44 167.107 396.737 167.686C396.034 168.264 395.125 168.554 394.008 168.554C392.727 168.554 391.735 168.202 391.032 167.5C390.37 166.755 389.874 165.846 389.543 164.771C389.254 163.696 389.068 162.518 388.985 161.236C388.944 159.913 388.923 158.673 388.923 157.516C388.923 156.11 388.324 154.787 387.125 153.547C385.926 152.265 384.417 151.149 382.598 150.198C380.779 149.247 378.795 148.503 376.645 147.966C374.495 147.387 372.49 147.098 370.63 147.098C367.157 147.098 364.077 147.904 361.39 149.516C358.703 151.128 356.367 153.237 354.383 155.841C352.398 158.446 350.724 161.36 349.36 164.585C348.037 167.81 346.962 171.034 346.135 174.259C345.308 177.442 344.709 180.481 344.337 183.375C344.006 186.268 343.841 188.646 343.841 190.506C343.841 194.185 344.626 197.472 346.197 200.366C347.768 203.26 349.835 205.719 352.398 207.745C354.962 209.729 357.855 211.259 361.08 212.334C364.305 213.368 367.591 213.884 370.94 213.884C372.594 213.884 374.537 213.822 376.769 213.698C379.001 213.574 381.275 213.368 383.59 213.078C385.905 212.747 388.159 212.313 390.35 211.776C392.582 211.238 394.484 210.577 396.055 209.792C396.716 209.461 397.274 209.068 397.729 208.613C398.184 208.117 398.639 207.662 399.093 207.249C399.589 206.794 400.127 206.422 400.706 206.133C401.326 205.802 402.09 205.637 403 205.637C404.778 205.637 406.183 206.236 407.217 207.435C408.292 208.634 408.829 210.102 408.829 211.838C408.829 212.995 408.684 213.946 408.395 214.69C408.106 215.393 407.61 216.034 406.907 216.613C405.336 217.936 403.165 219.073 400.396 220.023C397.667 220.974 394.69 221.76 391.466 222.38C388.241 223 384.955 223.455 381.606 223.744C378.299 224.034 375.26 224.178 372.49 224.178C369.266 224.178 366.041 223.972 362.816 223.558C359.633 223.145 356.574 222.463 353.639 221.512C350.703 220.52 347.954 219.197 345.391 217.543C342.869 215.848 340.678 213.74 338.818 211.218C336.958 208.655 335.49 205.637 334.415 202.164C333.382 198.691 332.865 194.64 332.865 190.01ZM420.797 190.01C420.797 183.602 421.831 178.166 423.898 173.701C425.965 169.236 428.673 165.618 432.021 162.849C435.411 160.037 439.236 158.012 443.494 156.771C447.793 155.49 452.175 154.849 456.64 154.849C461.808 154.849 466.438 155.697 470.531 157.392C474.665 159.087 478.158 161.526 481.011 164.709C483.863 167.892 486.054 171.758 487.584 176.305C489.114 180.811 489.878 185.876 489.878 191.498C489.878 194.764 489.444 197.844 488.576 200.738C487.708 203.632 486.509 206.319 484.979 208.799C483.45 211.238 481.61 213.43 479.46 215.373C477.352 217.316 475.037 218.99 472.515 220.396C469.993 221.76 467.327 222.793 464.516 223.496C461.704 224.24 458.852 224.612 455.958 224.612C452.816 224.612 449.757 224.116 446.78 223.124C443.845 222.173 441.075 220.85 438.471 219.155C435.866 217.46 433.468 215.497 431.277 213.264C429.128 210.99 427.267 208.572 425.696 206.009C424.167 203.446 422.968 200.8 422.1 198.071C421.231 195.343 420.797 192.656 420.797 190.01ZM431.525 188.459C431.525 191.519 432.187 194.599 433.51 197.699C434.833 200.758 436.569 203.528 438.719 206.009C440.91 208.489 443.39 210.515 446.16 212.086C448.971 213.616 451.824 214.38 454.718 214.38C457.86 214.38 460.898 213.843 463.833 212.768C466.81 211.693 469.415 210.122 471.647 208.055C473.921 205.988 475.74 203.466 477.104 200.49C478.468 197.513 479.15 194.123 479.15 190.32C479.15 186.599 478.634 183.209 477.6 180.15C476.608 177.049 475.223 174.383 473.445 172.15C471.668 169.918 469.539 168.202 467.058 167.003C464.578 165.763 461.89 165.143 458.997 165.143C455.772 165.143 452.527 165.66 449.261 166.693C445.995 167.686 443.039 169.174 440.393 171.158C437.789 173.101 435.66 175.52 434.006 178.414C432.352 181.307 431.525 184.656 431.525 188.459ZM506.498 192.18C506.498 189.038 506.87 185.938 507.614 182.878C508.399 179.778 509.536 176.843 511.024 174.073C512.513 171.303 514.352 168.74 516.543 166.383C518.735 164.027 521.277 162.001 524.171 160.306C527.065 158.57 530.269 157.247 533.783 156.337C537.338 155.387 541.203 154.932 545.379 154.973C547.281 155.014 549.182 155.345 551.084 155.965C553.027 156.544 554.846 157.309 556.541 158.26C558.277 159.169 559.869 160.203 561.316 161.36C562.804 162.477 564.044 163.593 565.037 164.709C565.078 164.502 565.099 164.213 565.099 163.841C565.14 163.427 565.161 163.035 565.161 162.663C565.202 162.249 565.223 161.877 565.223 161.546C565.264 161.174 565.285 160.926 565.285 160.802V137.734C565.285 133.558 567.414 131.471 571.672 131.471C572.581 131.471 573.326 131.657 573.904 132.029C574.524 132.401 575 132.897 575.331 133.517C575.703 134.096 575.951 134.778 576.075 135.563C576.24 136.308 576.323 137.072 576.323 137.858C576.323 138.189 576.302 138.767 576.261 139.594C576.261 140.421 576.261 141.31 576.261 142.261C576.261 143.17 576.24 144.059 576.199 144.927C576.199 145.795 576.199 146.478 576.199 146.974C576.281 148.834 576.364 151.356 576.447 154.539C576.571 157.681 576.633 161.546 576.633 166.135C576.633 169.897 576.571 173.804 576.447 177.855C576.323 181.907 576.219 186 576.137 190.134C575.971 194.392 575.847 198.609 575.765 202.784C575.723 206.96 575.703 211.032 575.703 215C575.703 218.142 575.227 220.458 574.276 221.946C573.326 223.434 571.651 224.178 569.253 224.178C568.468 224.178 567.744 223.972 567.083 223.558C566.422 223.145 565.843 222.607 565.347 221.946C564.851 221.243 564.417 220.458 564.044 219.589C563.672 218.68 563.404 217.729 563.238 216.737C562.163 218.06 560.696 219.197 558.835 220.147C557.016 221.057 554.97 221.801 552.696 222.38C550.464 222.959 548.087 223.372 545.565 223.62C543.043 223.91 540.542 224.054 538.062 224.054C532.77 224.054 528.14 223.269 524.171 221.698C520.243 220.127 516.957 217.936 514.311 215.125C511.707 212.313 509.743 208.965 508.42 205.079C507.138 201.151 506.498 196.852 506.498 192.18ZM518.218 192.304C518.218 195.653 518.797 198.671 519.954 201.358C521.112 204.045 522.683 206.34 524.667 208.241C526.651 210.102 528.946 211.549 531.55 212.582C534.196 213.574 536.987 214.07 539.922 214.07C543.932 214.07 547.384 213.678 550.278 212.892C553.213 212.107 555.632 211.156 557.533 210.04C559.435 208.882 560.882 207.683 561.874 206.443C562.908 205.161 563.548 204.045 563.796 203.094C564.044 201.771 564.23 200.49 564.354 199.25C564.479 197.968 564.561 196.686 564.603 195.405C564.644 194.082 564.665 192.718 564.665 191.312C564.665 189.865 564.665 188.294 564.665 186.599C564.665 183.829 564.106 181.183 562.99 178.662C561.915 176.098 560.468 173.845 558.649 171.902C556.83 169.959 554.763 168.409 552.448 167.251C550.133 166.094 547.735 165.515 545.255 165.515C540.914 165.515 537.049 166.197 533.659 167.562C530.31 168.884 527.478 170.745 525.163 173.143C522.889 175.54 521.153 178.372 519.954 181.638C518.797 184.904 518.218 188.459 518.218 192.304ZM594.554 193.544C594.554 187.674 595.402 182.362 597.097 177.607C598.792 172.853 601.293 168.802 604.6 165.453C607.907 162.104 611.959 159.521 616.754 157.702C621.591 155.883 627.152 154.973 633.436 154.973C635.585 154.973 637.776 155.201 640.009 155.655C642.283 156.11 644.474 156.771 646.582 157.64C648.69 158.508 650.675 159.583 652.535 160.864C654.437 162.146 656.09 163.634 657.496 165.329C658.902 166.983 659.997 168.843 660.783 170.91C661.61 172.936 662.023 175.148 662.023 177.545C662.023 179.406 661.61 180.749 660.783 181.576C659.956 182.403 658.86 182.982 657.496 183.312C656.297 183.643 654.892 183.953 653.279 184.243C651.708 184.491 649.931 184.925 647.946 185.545L606.46 198.443C606.998 200.965 607.866 203.115 609.065 204.893C610.305 206.67 611.731 208.159 613.344 209.357C614.997 210.556 616.775 211.507 618.677 212.21C620.62 212.913 622.563 213.45 624.506 213.822C626.449 214.153 628.33 214.38 630.149 214.504C632.009 214.587 633.684 214.628 635.172 214.628C637.528 214.628 639.864 214.36 642.179 213.822C644.494 213.285 646.623 212.685 648.566 212.024C650.509 211.362 652.204 210.763 653.651 210.226C655.14 209.688 656.215 209.419 656.876 209.419C659.067 209.419 660.659 209.916 661.651 210.908C662.684 211.9 663.201 213.45 663.201 215.559C663.201 216.923 662.498 218.101 661.093 219.093C659.729 220.085 657.951 220.912 655.76 221.574C653.569 222.235 651.13 222.752 648.442 223.124C645.797 223.537 643.192 223.827 640.629 223.992C638.107 224.199 635.792 224.323 633.684 224.364C631.575 224.447 629.984 224.488 628.909 224.488C626.056 224.488 623.204 224.116 620.351 223.372C617.54 222.669 614.853 221.656 612.29 220.333C609.768 219.011 607.411 217.419 605.22 215.559C603.07 213.657 601.189 211.569 599.577 209.295C598.006 206.98 596.766 204.5 595.856 201.854C594.988 199.208 594.554 196.438 594.554 193.544ZM606.15 188.708C608.093 188.129 610.326 187.467 612.848 186.723C615.369 185.979 618.015 185.194 620.785 184.367C623.596 183.499 626.428 182.61 629.281 181.7C632.175 180.791 634.944 179.902 637.59 179.034C640.278 178.124 642.737 177.277 644.97 176.491C647.243 175.664 649.145 174.9 650.675 174.197C650.22 172.626 649.455 171.282 648.38 170.166C647.306 169.008 645.941 168.078 644.288 167.375C642.675 166.631 640.794 166.094 638.645 165.763C636.495 165.391 634.138 165.205 631.575 165.205C630.418 165.205 629.033 165.37 627.42 165.701C625.849 166.032 624.175 166.569 622.397 167.313C620.661 168.016 618.883 168.967 617.064 170.166C615.287 171.365 613.654 172.833 612.166 174.569C610.677 176.305 609.396 178.352 608.321 180.708C607.246 183.023 606.522 185.69 606.15 188.708Z" fill="#FFC727"/>
<rect x="596.54" y="79.0583" width="19" height="19" rx="9.5" transform="rotate(91.1469 596.54 79.0583)" fill="#FFC727" stroke="#FFC727" stroke-width="2"/>
<rect x="517.716" y="69.4786" width="23" height="23" rx="11.5" transform="rotate(91.1469 517.716 69.4786)" fill="#FFC727" stroke="#FFC727" stroke-width="2"/>
<path d="M529.39 63.5741C525.35 63.4932 521.56 65.4667 518.225 68.0955C514.879 70.7331 511.867 74.1293 509.376 77.0957C508.828 77.7475 508.312 78.3715 507.822 78.9635C507.181 79.7374 506.586 80.4566 506.026 81.1116C505.035 82.271 504.243 83.1227 503.639 83.6031C503.509 83.7057 503.404 83.779 503.32 83.8308C503.309 83.7855 503.297 83.7324 503.285 83.6705C503.22 83.32 503.185 82.8044 503.199 82.0807C503.427 70.7258 514.974 61.4221 529.428 61.7115C543.881 62.0008 555.047 71.7593 554.82 83.1142C554.805 83.8378 554.749 84.3516 554.67 84.6992C554.656 84.7606 554.642 84.8132 554.629 84.858C554.547 84.8029 554.445 84.7254 554.32 84.6177C553.735 84.1135 552.978 83.2308 552.034 82.0327C551.501 81.3558 550.935 80.6134 550.326 79.8144C549.86 79.2033 549.368 78.5591 548.847 77.8859C546.477 74.8222 543.603 71.3082 540.366 68.5388C537.138 65.7786 533.43 63.655 529.39 63.5741Z" fill="#FFC727" stroke="#FFC727" stroke-width="2"/>
<path d="M561.612 103.48C565.64 103.57 569.425 101.627 572.759 99.034C576.104 96.4323 579.116 93.0792 581.609 90.1502C582.156 89.5065 582.673 88.8904 583.163 88.3059C583.804 87.5418 584.4 86.8319 584.96 86.1852C585.951 85.0407 586.742 84.2003 587.346 83.7269C587.476 83.6252 587.582 83.5526 587.666 83.5015C587.677 83.5448 587.688 83.5954 587.699 83.6541C587.763 83.9993 587.797 84.5082 587.781 85.2235C587.53 96.443 575.999 105.624 561.571 105.301C547.143 104.979 536.034 95.2919 536.284 84.0723C536.3 83.357 536.357 82.8503 536.436 82.5082C536.45 82.4501 536.463 82.4001 536.476 82.3572C536.558 82.4121 536.66 82.4893 536.785 82.5967C537.367 83.0967 538.121 83.9715 539.06 85.1592C539.59 85.8302 540.153 86.5661 540.759 87.358C541.223 87.9638 541.712 88.6025 542.23 89.27C544.589 92.3074 547.449 95.7918 550.674 98.5403C553.888 101.28 557.583 103.39 561.612 103.48Z" fill="#FFC727" stroke="#FFC727" stroke-width="2"/>
<rect x="120.704" y="180.935" width="19" height="19" rx="9.5" transform="rotate(92.7297 120.704 180.935)" fill="white" stroke="white" stroke-width="2"/>
<rect x="42.1749" y="169.182" width="23" height="23" rx="11.5" transform="rotate(92.7297 42.1749 169.182)" fill="white" stroke="white" stroke-width="2"/>
<path d="M54.0082 163.602C49.972 163.41 46.1289 165.278 42.7225 167.813C39.3047 170.358 36.2005 173.669 33.6279 176.566C33.0627 177.202 32.5291 177.812 32.0229 178.39C31.361 179.146 30.7461 179.848 30.1683 180.488C29.1457 181.619 28.3306 182.449 27.713 182.912C27.5812 183.011 27.4735 183.082 27.3883 183.131C27.3781 183.085 27.3678 183.032 27.3581 182.97C27.3027 182.618 27.2815 182.101 27.316 181.378C27.8569 170.034 39.6566 161.053 54.0969 161.741C68.5372 162.43 79.429 172.493 78.8881 183.837C78.8536 184.56 78.7834 185.072 78.6948 185.417C78.6792 185.478 78.6638 185.531 78.6494 185.575C78.5692 185.518 78.4688 185.437 78.347 185.326C77.7763 184.806 77.0438 183.903 76.1335 182.679C75.6192 181.988 75.0738 181.23 74.4869 180.414C74.038 179.791 73.5648 179.133 73.0627 178.446C70.7773 175.318 68.0023 171.726 64.8421 168.868C61.6923 166.02 58.0444 163.795 54.0082 163.602Z" fill="white" stroke="white" stroke-width="2"/>
<path d="M85.1149 204.382C89.1395 204.584 92.9768 202.747 96.3812 200.246C99.7965 197.738 102.9 194.469 105.473 191.61C106.038 190.982 106.572 190.38 107.078 189.81C107.739 189.064 108.354 188.37 108.932 187.739C109.954 186.623 110.769 185.804 111.385 185.348C111.518 185.25 111.626 185.18 111.711 185.131C111.721 185.175 111.73 185.226 111.74 185.285C111.794 185.632 111.814 186.141 111.778 186.856C111.218 198.064 99.4375 206.923 85.0239 206.202C70.6103 205.481 59.7728 195.491 60.3334 184.283C60.3691 183.568 60.44 183.063 60.5286 182.724C60.5437 182.666 60.5584 182.616 60.5724 182.574C60.6525 182.631 60.753 182.711 60.875 182.822C61.443 183.337 62.1717 184.233 63.0776 185.446C63.5894 186.131 64.1319 186.882 64.7159 187.691C65.1626 188.309 65.6334 188.961 66.1332 189.643C68.4075 192.744 71.1696 196.306 74.3176 199.143C77.4555 201.97 81.0903 204.181 85.1149 204.382Z" fill="white" stroke="white" stroke-width="2"/>
</svg>
