<svg width="178" height="178" viewBox="0 0 178 178" fill="none" xmlns="http://www.w3.org/2000/svg">
<path d="M9.23975 85.0098C9.23975 82.736 9.40511 80.3382 9.73584 77.8164C10.0666 75.2533 10.5213 72.6901 11.1001 70.127C11.6789 67.5225 12.3197 64.9593 13.0225 62.4375C13.7666 59.9157 14.5521 57.5386 15.3789 55.3062C16.3711 52.6603 17.7767 49.9318 19.5957 47.1206C21.4561 44.3094 23.6885 41.7669 26.293 39.4932C28.9388 37.1781 31.936 35.2764 35.2847 33.7881C38.6746 32.2998 42.3953 31.5557 46.4468 31.5557C50.0021 31.5557 53.5161 32.0724 56.9888 33.106C60.5028 34.1395 63.6447 35.6691 66.4146 37.6948C69.2257 39.7205 71.4995 42.2217 73.2358 45.1982C74.9722 48.1335 75.8403 51.5441 75.8403 55.4302C75.8403 56.133 75.7576 56.9598 75.5923 57.9106C75.4269 58.8201 75.1375 59.709 74.7241 60.5771C74.3521 61.404 73.8146 62.1068 73.1118 62.6855C72.409 63.2643 71.4995 63.5537 70.3833 63.5537C69.1017 63.5537 68.1095 63.2023 67.4067 62.4995C66.7453 61.7554 66.2492 60.8459 65.9185 59.771C65.6291 58.6961 65.443 57.5179 65.3604 56.2363C65.319 54.9134 65.2983 53.6732 65.2983 52.5156C65.2983 51.11 64.6989 49.7871 63.5 48.5469C62.3011 47.2653 60.7922 46.1491 58.9731 45.1982C57.1541 44.2474 55.1698 43.5033 53.02 42.9658C50.8703 42.387 48.8652 42.0977 47.0049 42.0977C43.5322 42.0977 40.4523 42.9038 37.7651 44.5161C35.078 46.1284 32.7422 48.2368 30.7578 50.8413C28.7734 53.4458 27.0991 56.3604 25.7349 59.585C24.4119 62.8096 23.3371 66.0342 22.5103 69.2588C21.6834 72.4421 21.084 75.4806 20.7119 78.3745C20.3812 81.2684 20.2158 83.6455 20.2158 85.5059C20.2158 89.1852 21.0013 92.4718 22.5723 95.3657C24.1432 98.2596 26.2103 100.719 28.7734 102.745C31.3366 104.729 34.2305 106.259 37.4551 107.334C40.6797 108.368 43.9663 108.884 47.3149 108.884C48.9686 108.884 50.9116 108.822 53.144 108.698C55.3765 108.574 57.6502 108.368 59.9653 108.078C62.2804 107.747 64.5335 107.313 66.7246 106.776C68.957 106.238 70.8587 105.577 72.4297 104.792C73.0911 104.461 73.6493 104.068 74.104 103.613C74.5588 103.117 75.0135 102.662 75.4683 102.249C75.9644 101.794 76.5018 101.422 77.0806 101.133C77.7007 100.802 78.4655 100.637 79.375 100.637C81.1527 100.637 82.5583 101.236 83.5918 102.435C84.6667 103.634 85.2041 105.102 85.2041 106.838C85.2041 107.995 85.0594 108.946 84.77 109.69C84.4806 110.393 83.9845 111.034 83.2817 111.613C81.7108 112.936 79.5404 114.073 76.7705 115.023C74.042 115.974 71.0654 116.76 67.8408 117.38C64.6162 118 61.3296 118.455 57.981 118.744C54.6737 119.034 51.6351 119.178 48.8652 119.178C45.6406 119.178 42.416 118.972 39.1914 118.558C36.0081 118.145 32.9489 117.463 30.0137 116.512C27.0785 115.52 24.3293 114.197 21.7661 112.543C19.2443 110.848 17.0532 108.74 15.1929 106.218C13.3325 103.655 11.8649 100.637 10.79 97.1641C9.75651 93.6914 9.23975 89.64 9.23975 85.0098Z" fill="white"/>
<path d="M101.885 107.024C101.885 105.412 101.865 103.593 101.823 101.567C101.782 99.5412 101.761 97.6602 101.761 95.9238C101.761 93.278 101.782 90.4875 101.823 87.5522C101.865 84.617 101.906 81.6405 101.947 78.6226C101.989 75.5633 102.03 72.5041 102.071 69.4448C102.113 66.3856 102.133 63.3677 102.133 60.3911C102.133 57.3319 102.009 54.2726 101.761 51.2134C101.555 48.1541 101.451 44.9089 101.451 41.4775C101.451 40.8988 101.534 40.1753 101.699 39.3071C101.906 38.439 102.216 37.6121 102.629 36.8267C103.043 35.9998 103.56 35.3177 104.18 34.7803C104.8 34.2015 105.544 33.9121 106.412 33.9121C108.148 33.9121 109.595 34.3255 110.753 35.1523C111.952 35.9378 112.944 36.992 113.729 38.3149C114.556 39.6379 115.238 41.1468 115.776 42.8418C116.313 44.5368 116.809 46.2731 117.264 48.0508C117.76 49.8285 118.256 51.5854 118.752 53.3218C119.29 55.0168 119.951 56.5464 120.737 57.9106C122.101 60.3498 123.61 62.9956 125.264 65.8481C126.917 68.7007 128.592 71.5532 130.287 74.4058C132.023 77.2583 133.697 80.0282 135.31 82.7153C136.963 85.3612 138.472 87.7176 139.836 89.7847C141.407 91.8931 142.916 93.9188 144.363 95.8618C145.852 97.8049 147.195 99.5205 148.394 101.009C149.593 102.456 150.606 103.613 151.433 104.481C152.301 105.35 152.921 105.784 153.293 105.784C153.417 105.784 153.541 105.308 153.665 104.357C153.83 103.407 153.975 102.187 154.099 100.699C154.223 99.1691 154.347 97.4741 154.471 95.6138C154.637 93.7121 154.761 91.8517 154.843 90.0327C154.967 88.1724 155.071 86.436 155.153 84.8237C155.277 83.2114 155.36 81.9092 155.401 80.917C155.443 75.5426 155.484 70.8091 155.525 66.7163C155.567 62.6235 155.587 58.9855 155.587 55.8022C155.629 52.5776 155.649 49.7044 155.649 47.1826C155.649 44.6608 155.649 42.2837 155.649 40.0513C155.649 37.9842 155.732 36.1652 155.897 34.5942C156.063 33.0233 156.373 31.7004 156.828 30.6255C157.324 29.5506 157.965 28.7445 158.75 28.207C159.577 27.6283 160.61 27.3389 161.851 27.3389C162.884 27.3389 163.773 27.4215 164.517 27.5869C165.261 27.7109 165.881 28.0417 166.377 28.5791C166.874 29.0752 167.225 29.84 167.432 30.8735C167.68 31.8657 167.804 33.23 167.804 34.9663C167.804 39.2244 167.7 43.4412 167.494 47.6167C167.287 51.7508 167.122 55.9676 166.998 60.2671C166.791 67.5845 166.481 75.0465 166.067 82.6533C165.654 90.2188 165.241 97.7635 164.827 105.288C164.703 107.024 164.6 108.884 164.517 110.869C164.434 112.853 164.104 114.693 163.525 116.388C162.987 118.041 162.057 119.406 160.734 120.48C159.453 121.597 157.489 122.155 154.843 122.155C154.264 122.155 153.706 122.051 153.169 121.845C152.632 121.638 152.115 121.39 151.619 121.101C151.164 120.853 150.75 120.563 150.378 120.232C150.006 119.902 149.738 119.612 149.572 119.364C145.934 115.602 142.42 111.551 139.03 107.21C135.682 102.828 132.457 98.3423 129.356 93.7534C126.256 89.1646 123.3 84.5343 120.489 79.8628C117.719 75.1499 115.135 70.561 112.737 66.0962C112.737 76.3901 112.882 84.1416 113.171 89.3506C113.461 94.5596 113.647 97.4535 113.729 98.0322C113.978 99.3138 114.226 100.823 114.474 102.559C114.763 104.295 114.908 106.156 114.908 108.14C114.908 109.298 114.804 110.393 114.598 111.427C114.432 112.46 114.122 113.37 113.667 114.155C113.213 114.941 112.613 115.561 111.869 116.016C111.125 116.47 110.195 116.698 109.079 116.698C107.466 116.698 106.185 116.45 105.234 115.954C104.283 115.416 103.56 114.713 103.063 113.845C102.567 112.936 102.237 111.902 102.071 110.745C101.947 109.546 101.885 108.306 101.885 107.024Z" fill="#FFC727"/>
<rect x="48.1603" y="160.774" width="17.3799" height="17.3799" rx="8.68995" transform="rotate(-89.4168 48.1603 160.774)" fill="#FFC727" stroke="#FFC727" stroke-width="2"/>
<rect x="120.992" y="168.898" width="21.0728" height="21.0728" rx="10.5364" transform="rotate(-89.4168 120.992 168.898)" fill="white" stroke="white" stroke-width="2"/>
<path d="M110.192 174.607C113.947 174.645 117.444 172.777 120.504 170.316C123.575 167.846 126.328 164.679 128.6 161.919C129.101 161.311 129.572 160.73 130.019 160.179C130.602 159.46 131.144 158.792 131.655 158.182C132.559 157.103 133.278 156.315 133.825 155.872C133.899 155.812 133.963 155.764 134.019 155.725C134.021 155.737 134.024 155.749 134.026 155.761C134.088 156.077 134.125 156.547 134.119 157.212C134.013 167.637 123.491 176.308 110.176 176.172C96.8619 176.037 86.5187 167.153 86.6248 156.729C86.6315 156.063 86.6784 155.594 86.7466 155.28C86.7494 155.268 86.7521 155.255 86.7548 155.244C86.81 155.284 86.8734 155.334 86.9455 155.395C87.4834 155.849 88.186 156.652 89.0681 157.749C89.5662 158.369 90.0946 159.048 90.6635 159.779C91.099 160.339 91.5584 160.929 92.0461 161.546C94.2623 164.353 96.9499 167.575 99.9697 170.107C102.979 172.63 106.437 174.569 110.192 174.607Z" fill="white" stroke="white" stroke-width="2"/>
<path d="M80.0957 137.918C76.3511 137.871 72.8584 139.71 69.7993 142.138C66.7296 144.575 63.9758 147.702 61.7019 150.428C61.2013 151.028 60.7298 151.602 60.2828 152.146C59.6988 152.856 59.1566 153.516 58.6458 154.117C57.7412 155.183 57.0227 155.96 56.4764 156.397C56.4026 156.457 56.3378 156.505 56.2816 156.543C56.2795 156.534 56.2775 156.524 56.2755 156.513C56.2149 156.203 56.1787 155.739 56.1869 155.081C56.3158 144.782 66.8233 136.224 80.1148 136.39C93.4064 136.557 103.696 145.375 103.568 155.674C103.559 156.332 103.512 156.794 103.443 157.103C103.441 157.114 103.439 157.124 103.436 157.133C103.381 157.093 103.318 157.043 103.245 156.983C102.71 156.532 102.011 155.737 101.134 154.649C100.638 154.035 100.112 153.362 99.5465 152.637C99.1132 152.082 98.6562 151.497 98.1708 150.885C95.9658 148.102 93.2911 144.907 90.2833 142.395C87.2859 139.891 83.8403 137.965 80.0957 137.918Z" fill="#FFC727" stroke="#FFC727" stroke-width="2"/>
</svg>
